<svg xmlns="http://www.w3.org/2000/svg" width="100" height="100" viewBox="0 0 600 600"><rect width="100%" height="100%" fill="#DDDDDD"/><path fill="#999999" d="M132.265 286.51h3.67v22.41h-2.14q-.49 0-.83-.16-.33-.17-.64-.55l-11.7-14.94q.09 1.02.09 1.89v13.76h-3.67v-22.41h2.18q.27 0 .46.02t.34.09q.15.07.29.2.14.14.31.35l11.75 15.01q-.05-.55-.08-1.07-.03-.53-.03-.98v-13.62Zm15.1 6.26q1.76 0 3.21.57 1.45.58 2.48 1.63 1.03 1.05 1.59 2.57.56 1.52.56 3.4 0 1.89-.56 3.41-.56 1.52-1.59 2.59-1.03 1.07-2.48 1.64-1.45.57-3.21.57-1.79 0-3.24-.57-1.46-.57-2.49-1.64-1.03-1.07-1.6-2.59-.56-1.52-.56-3.41 0-1.88.56-3.4.57-1.52 1.6-2.57 1.03-1.05 2.49-1.63 1.45-.57 3.24-.57Zm0 13.44q1.98 0 2.93-1.34.96-1.33.96-3.9t-.96-3.92q-.95-1.35-2.93-1.35-2.02 0-2.99 1.35-.97 1.36-.97 3.92 0 2.56.97 3.9.97 1.34 2.99 1.34Zm23.6 2.96q-2.07 0-3.18-1.17-1.11-1.17-1.11-3.23v-8.89h-1.63q-.31 0-.53-.2-.21-.2-.21-.6v-1.52l2.56-.42.8-4.34q.08-.31.3-.48.21-.17.55-.17h1.99v5.01h4.24v2.72h-4.24v8.62q0 .75.36 1.17.37.41 1 .41.36 0 .6-.08.24-.09.42-.18t.31-.18q.14-.08.28-.08.17 0 .28.08.11.09.24.26l1.14 1.86q-.83.7-1.92 1.05-1.08.36-2.25.36Zm10.06-23.28v8.83q.93-.87 2.05-1.41 1.11-.54 2.62-.54 1.3 0 2.31.44 1 .44 1.68 1.24.67.8 1.02 1.91.35 1.11.35 2.44v10.12h-3.83V298.8q0-1.46-.66-2.26-.67-.8-2.03-.8-1 0-1.86.45-.87.45-1.65 1.23v11.5h-3.83v-23.03h3.83Zm23.53 7.13h3.83v15.9h-2.34q-.76 0-.96-.7l-.27-1.27q-.97.99-2.15 1.61-1.18.61-2.77.61-1.31 0-2.31-.44-1-.45-1.68-1.25-.68-.81-1.03-1.92-.35-1.1-.35-2.44v-10.1h3.83v10.1q0 1.46.68 2.26.67.8 2.02.8.99 0 1.86-.45.87-.44 1.64-1.21v-11.5Zm11.44 15.9h-3.83v-15.9h2.34q.75 0 .98.69l.25 1.18q.42-.46.87-.85.46-.39.98-.67t1.12-.44q.59-.16 1.3-.16 1.51 0 2.48.81.97.82 1.45 2.16.37-.79.93-1.35.55-.57 1.22-.92.67-.36 1.42-.53.75-.17 1.51-.17 1.32 0 2.34.4 1.02.4 1.72 1.18.7.78 1.06 1.89.37 1.12.37 2.56v10.12h-3.83V298.8q0-1.52-.67-2.29-.66-.77-1.95-.77-.59 0-1.09.21-.51.2-.89.58-.38.38-.59.95-.22.57-.22 1.32v10.12h-3.84V298.8q0-1.6-.65-2.33-.64-.73-1.88-.73-.84 0-1.56.42-.72.41-1.34 1.12v11.64Zm25.96-11.25v7.13q.65.79 1.42 1.11.77.33 1.62.33.88 0 1.59-.32.7-.32 1.2-.99.5-.68.76-1.72.26-1.05.26-2.5 0-2.62-.86-3.79-.87-1.18-2.5-1.18-1.1 0-1.92.51-.82.5-1.57 1.42Zm0-11.78v9.08q.96-1.01 2.13-1.6 1.17-.6 2.68-.6 1.38 0 2.49.54 1.1.54 1.89 1.56.78 1.01 1.2 2.46.42 1.44.42 3.24 0 1.93-.48 3.51-.48 1.59-1.38 2.71-.89 1.12-2.14 1.74-1.26.62-2.79.62-.75 0-1.35-.14-.61-.15-1.12-.42-.51-.26-.93-.64-.43-.38-.82-.84l-.17 1.07q-.09.4-.32.57-.22.17-.61.17h-2.53v-23.03h3.83Zm17.08 7.82.27 1.26q.48-.48 1.01-.89.54-.41 1.13-.7.6-.29 1.28-.45.68-.16 1.49-.16 1.3 0 2.31.44t1.68 1.24q.68.8 1.03 1.91.34 1.11.34 2.44v10.12h-3.82V298.8q0-1.46-.67-2.26-.67-.8-2.03-.8-.99 0-1.86.45-.87.45-1.64 1.23v11.5h-3.83v-15.9h2.34q.74 0 .97.69Zm22.57 11.1v-2.68q-1.66.08-2.79.29-1.13.21-1.81.53-.68.33-.98.76-.29.44-.29.95 0 1.01.59 1.44.6.43 1.56.43 1.18 0 2.04-.42.86-.43 1.68-1.3Zm-8.09-8.35-.68-1.23q2.74-2.51 6.6-2.51 1.4 0 2.5.46t1.86 1.27q.76.81 1.15 1.95.4 1.13.4 2.48v10.04h-1.74q-.54 0-.84-.16-.29-.17-.46-.66l-.34-1.15q-.61.54-1.18.95-.57.42-1.19.69-.62.28-1.33.43-.7.15-1.56.15-1 0-1.86-.27-.85-.27-1.47-.82-.62-.54-.96-1.35-.34-.8-.34-1.87 0-.61.2-1.2.2-.6.66-1.14.46-.54 1.19-1.02.72-.49 1.79-.84 1.06-.36 2.47-.58 1.41-.23 3.22-.27v-.93q0-1.6-.68-2.37t-1.97-.77q-.93 0-1.54.22t-1.08.49q-.46.27-.84.49-.38.22-.85.22-.4 0-.68-.21t-.45-.49Zm15.55-3.44h3.84v15.9h-3.84v-15.9Zm4.37-4.64q0 .5-.2.93-.2.44-.54.76-.33.33-.78.52t-.96.19q-.5 0-.94-.19-.44-.19-.77-.52-.32-.32-.52-.76-.19-.43-.19-.93 0-.51.19-.96.2-.45.52-.77.33-.33.77-.52.44-.2.94-.2.51 0 .96.2.45.19.78.52.34.32.54.77t.2.96Zm3.42-2.49h3.83v23.03h-3.83v-23.03Zm23.59 18.92v-2.68q-1.65.08-2.79.29-1.13.21-1.81.53-.68.33-.98.76-.29.44-.29.95 0 1.01.6 1.44.59.43 1.55.43 1.18 0 2.04-.42.86-.43 1.68-1.3Zm-8.09-8.35-.68-1.23q2.75-2.51 6.6-2.51 1.4 0 2.5.46t1.86 1.27q.76.81 1.16 1.95.39 1.13.39 2.48v10.04h-1.74q-.54 0-.83-.16-.3-.17-.47-.66l-.34-1.15q-.6.54-1.18.95-.57.42-1.19.69-.62.28-1.33.43-.7.15-1.55.15-1.01 0-1.86-.27-.86-.27-1.48-.82-.62-.54-.96-1.35-.34-.8-.34-1.87 0-.61.2-1.2.21-.6.66-1.14.46-.54 1.19-1.02.73-.49 1.79-.84 1.06-.36 2.47-.58 1.41-.23 3.22-.27v-.93q0-1.6-.68-2.37t-1.97-.77q-.93 0-1.54.22t-1.08.49q-.46.27-.84.49-.38.22-.84.22-.41 0-.69-.21-.28-.21-.45-.49Zm26.74-3.44h3.02l-6.3 15.9h-3.48l-6.31-15.9h3.17q.43 0 .72.2.28.2.38.51l3.07 8.49q.24.75.43 1.46t.33 1.43q.15-.72.34-1.43.18-.71.45-1.46l3.13-8.49q.11-.31.38-.51.28-.2.67-.2Zm13.46 11.79v-2.68q-1.66.08-2.79.29-1.14.21-1.82.53-.68.33-.97.76-.3.44-.3.95 0 1.01.6 1.44.59.43 1.56.43 1.17 0 2.03-.42.86-.43 1.69-1.3Zm-8.1-8.35-.68-1.23q2.75-2.51 6.61-2.51 1.39 0 2.49.46 1.1.46 1.86 1.27t1.16 1.95q.39 1.13.39 2.48v10.04h-1.74q-.54 0-.83-.16-.3-.17-.47-.66l-.34-1.15q-.6.54-1.18.95-.57.42-1.19.69-.62.28-1.32.43-.71.15-1.56.15-1.01 0-1.86-.27-.86-.27-1.48-.82-.62-.54-.96-1.35-.34-.8-.34-1.87 0-.61.2-1.2.21-.6.66-1.14.46-.54 1.19-1.02.73-.49 1.79-.84 1.06-.36 2.47-.58 1.41-.23 3.23-.27v-.93q0-1.6-.69-2.37-.68-.77-1.97-.77-.93 0-1.54.22t-1.07.49l-.85.49q-.38.22-.84.22-.41 0-.69-.21-.28-.21-.45-.49Zm15.55-3.44h3.84v15.9h-3.84v-15.9Zm4.37-4.64q0 .5-.2.93-.2.44-.53.76-.34.33-.79.52t-.96.19q-.49 0-.94-.19-.44-.19-.76-.52-.33-.32-.52-.76-.2-.43-.2-.93 0-.51.2-.96.19-.45.52-.77.32-.33.76-.52.45-.2.94-.2.51 0 .96.2.45.19.79.52.33.32.53.77t.2.96Zm3.43-2.49h3.83v23.03h-3.83v-23.03Zm16.06 18.92v-2.68q-1.66.08-2.79.29-1.14.21-1.82.53-.68.33-.97.76-.3.44-.3.95 0 1.01.6 1.44.59.43 1.56.43 1.17 0 2.03-.42.86-.43 1.69-1.3Zm-8.1-8.35-.68-1.23q2.75-2.51 6.61-2.51 1.39 0 2.49.46 1.1.46 1.86 1.27t1.16 1.95q.39 1.13.39 2.48v10.04h-1.74q-.54 0-.83-.16-.3-.17-.47-.66l-.34-1.15q-.6.54-1.18.95-.57.42-1.19.69-.62.28-1.32.43-.71.15-1.56.15-1.01 0-1.86-.27-.86-.27-1.48-.82-.62-.54-.96-1.35-.34-.8-.34-1.87 0-.61.2-1.2.21-.6.66-1.14.46-.54 1.19-1.02.73-.49 1.79-.84 1.06-.36 2.47-.58 1.41-.23 3.23-.27v-.93q0-1.6-.69-2.37-.68-.77-1.97-.77-.93 0-1.54.22t-1.07.49l-.85.49q-.38.22-.84.22-.41 0-.69-.21-.28-.21-.45-.49Zm19.26 1.21v7.13q.65.79 1.41 1.11.77.33 1.62.33.89 0 1.59-.32.71-.32 1.2-.99.5-.68.76-1.72.27-1.05.27-2.5 0-2.62-.87-3.79-.87-1.18-2.5-1.18-1.1 0-1.92.51-.82.5-1.56 1.42Zm0-11.78v9.08q.96-1.01 2.13-1.6 1.17-.6 2.67-.6 1.38 0 2.49.54 1.11.54 1.89 1.56.78 1.01 1.2 2.46.42 1.44.42 3.24 0 1.93-.48 3.51-.48 1.59-1.37 2.71-.89 1.12-2.15 1.74-1.26.62-2.79.62-.74 0-1.35-.14-.6-.15-1.11-.42-.52-.26-.94-.64-.43-.38-.82-.84l-.17 1.07q-.09.4-.31.57-.23.17-.62.17h-2.52v-23.03h3.83Zm13.81 0h3.82v23.03h-3.82v-23.03Zm10.68 13.25h7.22q0-.74-.21-1.4-.21-.66-.63-1.16-.42-.49-1.06-.78-.64-.29-1.5-.29-1.65 0-2.61.95-.95.94-1.21 2.68Zm9.76 2.31h-9.84q.09 1.22.43 2.11.34.9.9 1.48t1.33.87q.76.28 1.69.28.93 0 1.61-.21.67-.22 1.18-.49.5-.26.88-.48.38-.21.74-.21.48 0 .71.35l1.1 1.4q-.64.74-1.43 1.25-.79.5-1.65.8-.86.3-1.75.43-.89.12-1.73.12-1.66 0-3.08-.55-1.43-.55-2.48-1.63-1.06-1.07-1.66-2.66-.61-1.59-.61-3.68 0-1.63.53-3.06.53-1.44 1.51-2.5.99-1.06 2.41-1.68 1.41-.62 3.2-.62 1.5 0 2.77.48t2.19 1.4q.91.92 1.43 2.27.52 1.34.52 3.06 0 .86-.19 1.17-.18.3-.71.3Zm22.68-8.43h3.07l-8.67 20.27q-.17.4-.44.61-.27.21-.83.21h-2.85l2.97-6.38-6.43-14.71h3.37q.44 0 .7.21.26.22.38.5l3.38 8.25q.17.41.29.83.11.42.22.86.14-.44.28-.86.14-.43.31-.85l3.19-8.23q.13-.31.41-.51.29-.2.65-.2Zm7.99 6.12h7.23q0-.74-.21-1.4-.21-.66-.63-1.16-.42-.49-1.06-.78-.64-.29-1.5-.29-1.66 0-2.61.95-.95.94-1.22 2.68Zm9.77 2.31h-9.84q.09 1.22.43 2.11.34.9.9 1.48t1.33.87q.76.28 1.69.28.93 0 1.61-.21.67-.22 1.18-.49.5-.26.88-.48.38-.21.73-.21.49 0 .72.35l1.1 1.4q-.64.74-1.43 1.25-.79.5-1.65.8-.86.3-1.75.43-.89.12-1.73.12-1.66 0-3.08-.55-1.43-.55-2.48-1.63-1.06-1.07-1.66-2.66-.61-1.59-.61-3.68 0-1.63.53-3.06.53-1.44 1.51-2.5.99-1.06 2.41-1.68 1.41-.62 3.2-.62 1.5 0 2.77.48t2.19 1.4q.91.92 1.43 2.27.52 1.34.52 3.06 0 .86-.19 1.17-.18.3-.71.3Zm9.07 7.72q-2.08 0-3.19-1.17-1.11-1.17-1.11-3.23v-8.89h-1.62q-.31 0-.53-.2-.22-.2-.22-.6v-1.52l2.56-.42.81-4.34q.07-.31.29-.48.22-.17.56-.17h1.98v5.01h4.25v2.72h-4.25v8.62q0 .75.37 1.17.36.41 1 .41.35 0 .59-.08.24-.09.42-.18t.32-.18q.14-.08.28-.08.17 0 .28.08.11.09.23.26l1.15 1.86q-.84.7-1.93 1.05-1.08.36-2.24.36Z"/></svg>