<svg xmlns="http://www.w3.org/2000/svg" width="600" height="600" viewBox="0 0 600 600"><rect width="100%" height="100%" fill="#DDDDDD"/><path fill="#999999" d="M208.84 269.45h-11.56v7.22h9.11v3.73h-9.11v7.36h11.56v3.87h-16.42V265.6h16.42v3.85Zm7.51 4.83.27 2.09q.86-1.66 2.05-2.61 1.19-.94 2.81-.94 1.27 0 2.05.56l-.29 3.33q-.09.32-.26.46-.17.13-.46.13-.27 0-.8-.09t-1.04-.09q-.73 0-1.31.22-.58.21-1.03.62-.46.4-.81.98-.36.58-.66 1.31v11.38h-4.45v-18.47h2.61q.69 0 .96.24.27.25.36.88Zm13.42 0 .27 2.09q.87-1.66 2.06-2.61 1.18-.94 2.8-.94 1.28 0 2.06.56l-.29 3.33q-.09.32-.26.46-.17.13-.46.13-.27 0-.8-.09t-1.04-.09q-.74 0-1.31.22-.58.21-1.04.62-.46.4-.81.98-.35.58-.65 1.31v11.38h-4.45v-18.47h2.61q.68 0 .95.24.27.25.36.88Zm17.68-1.41q2.05 0 3.74.67 1.68.67 2.88 1.89 1.19 1.22 1.84 2.99.65 1.76.65 3.94 0 2.2-.65 3.96-.65 1.76-1.84 3.01-1.2 1.24-2.88 1.9-1.69.67-3.74.67-2.07 0-3.76-.67-1.69-.66-2.89-1.9-1.2-1.25-1.85-3.01-.66-1.76-.66-3.96 0-2.18.66-3.94.65-1.77 1.85-2.99 1.2-1.22 2.89-1.89 1.69-.67 3.76-.67Zm0 15.61q2.3 0 3.41-1.55 1.11-1.55 1.11-4.53 0-2.99-1.11-4.56-1.11-1.56-3.41-1.56-2.34 0-3.46 1.57-1.13 1.58-1.13 4.55 0 2.97 1.13 4.52 1.12 1.56 3.46 1.56Zm16.43-14.2.27 2.09q.87-1.66 2.06-2.61 1.18-.94 2.8-.94 1.28 0 2.06.56l-.29 3.33q-.09.32-.26.46-.17.13-.46.13-.27 0-.8-.09t-1.04-.09q-.74 0-1.31.22-.58.21-1.04.62-.46.4-.81.98-.35.58-.65 1.31v11.38h-4.45v-18.47h2.61q.68 0 .95.24.27.25.36.88Zm26.43-1.41q2.05 0 3.73.67 1.69.67 2.88 1.89 1.2 1.22 1.85 2.99.65 1.76.65 3.94 0 2.2-.65 3.96-.65 1.76-1.85 3.01-1.19 1.24-2.88 1.9-1.68.67-3.73.67-2.07 0-3.76-.67-1.7-.66-2.89-1.9-1.2-1.25-1.86-3.01-.65-1.76-.65-3.96 0-2.18.65-3.94.66-1.77 1.86-2.99 1.19-1.22 2.89-1.89 1.69-.67 3.76-.67Zm0 15.61q2.3 0 3.41-1.55 1.11-1.55 1.11-4.53 0-2.99-1.11-4.56-1.11-1.56-3.41-1.56-2.34 0-3.47 1.57-1.12 1.58-1.12 4.55 0 2.97 1.12 4.52 1.13 1.56 3.47 1.56Zm26.91-13.03-1.17 1.62q-.2.25-.39.39-.19.15-.55.15-.34 0-.66-.21-.33-.21-.78-.47t-1.07-.47q-.62-.2-1.54-.2-1.17 0-2.05.42-.88.42-1.47 1.22-.58.79-.87 1.91-.29 1.13-.29 2.55 0 1.48.32 2.63.31 1.15.91 1.93.59.79 1.44 1.19.84.41 1.9.41 1.07 0 1.72-.27.66-.26 1.11-.57.45-.32.78-.58.34-.26.75-.26.54 0 .81.42l1.28 1.62q-.74.86-1.6 1.44-.87.59-1.79.94-.93.35-1.91.5-.98.14-1.96.14-1.71 0-3.22-.64-1.51-.64-2.64-1.86-1.14-1.23-1.79-3-.66-1.77-.66-4.04 0-2.03.58-3.77.59-1.74 1.72-3.01 1.14-1.27 2.81-1.99 1.67-.72 3.85-.72 2.07 0 3.63.67t2.8 1.91Zm17.35 0-1.17 1.62q-.2.25-.39.39-.19.15-.55.15-.34 0-.66-.21-.33-.21-.78-.47t-1.07-.47q-.62-.2-1.54-.2-1.17 0-2.05.42-.88.42-1.46 1.22-.59.79-.88 1.91-.29 1.13-.29 2.55 0 1.48.32 2.63.31 1.15.91 1.93.59.79 1.44 1.19.84.41 1.91.41 1.06 0 1.72-.27.65-.26 1.1-.57.45-.32.79-.58.33-.26.74-.26.54 0 .81.42l1.28 1.62q-.74.86-1.6 1.44-.87.59-1.79.94-.93.35-1.91.5-.98.14-1.95.14-1.71 0-3.23-.64-1.51-.64-2.64-1.86-1.14-1.23-1.79-3-.66-1.77-.66-4.04 0-2.03.59-3.77.58-1.74 1.71-3.01 1.14-1.27 2.81-1.99 1.68-.72 3.85-.72 2.07 0 3.63.67t2.8 1.91Zm14.42-2.29h4.44v18.47h-2.71q-.89 0-1.12-.81l-.31-1.48q-1.13 1.16-2.5 1.87-1.37.71-3.22.71-1.51 0-2.67-.52-1.16-.51-1.96-1.44-.79-.94-1.19-2.23-.41-1.28-.41-2.83v-11.74h4.45v11.74q0 1.69.78 2.62.78.92 2.35.92 1.15 0 2.16-.51 1.01-.51 1.91-1.41v-13.36Zm12.76 1.12.27 2.09q.86-1.66 2.05-2.61 1.19-.94 2.81-.94 1.28 0 2.05.56l-.29 3.33q-.09.32-.26.46-.17.13-.46.13-.27 0-.8-.09t-1.03-.09q-.74 0-1.32.22-.57.21-1.03.62-.46.4-.81.98-.35.58-.66 1.31v11.38h-4.44v-18.47h2.61q.68 0 .95.24.27.25.36.88Zm13.01 5.99h8.39q0-.86-.24-1.63-.24-.76-.73-1.34-.49-.57-1.23-.91-.75-.33-1.74-.33-1.93 0-3.03 1.1-1.11 1.1-1.42 3.11Zm11.34 2.68h-11.43q.11 1.43.51 2.46.39 1.04 1.04 1.71.65.68 1.54 1.01.89.33 1.97.33t1.87-.25q.78-.25 1.36-.56.59-.3 1.03-.56.44-.25.85-.25.56 0 .83.42l1.28 1.62q-.74.86-1.66 1.44-.91.59-1.91.94-1 .35-2.04.5-1.03.14-2 .14-1.93 0-3.59-.64-1.65-.64-2.88-1.89-1.22-1.25-1.92-3.1-.7-1.84-.7-4.27 0-1.89.61-3.56.61-1.66 1.75-2.89 1.15-1.24 2.79-1.96 1.65-.72 3.72-.72 1.75 0 3.22.56 1.48.56 2.54 1.63 1.06 1.07 1.67 2.63.6 1.56.6 3.55 0 1.01-.22 1.36-.21.35-.83.35Zm15.97 3.21v-8.28q-.76-.92-1.65-1.3-.89-.38-1.91-.38-1.01 0-1.82.38t-1.39 1.14q-.57.77-.88 1.95-.3 1.18-.3 2.78 0 1.62.26 2.74.26 1.13.74 1.84.49.71 1.19 1.03.7.31 1.57.31 1.38 0 2.35-.57.98-.58 1.84-1.64Zm0-21.28h4.45v26.75h-2.72q-.88 0-1.12-.81l-.37-1.78q-1.12 1.28-2.57 2.07-1.45.79-3.37.79-1.52 0-2.78-.63-1.26-.63-2.17-1.83-.91-1.19-1.4-2.96-.49-1.76-.49-4.03 0-2.05.55-3.82.56-1.76 1.6-3.06 1.05-1.29 2.51-2.02 1.45-.73 3.27-.73 1.55 0 2.65.49 1.1.48 1.96 1.31v-9.74ZM135.86 308.8h4.27v26.03h-2.49q-.57 0-.96-.19t-.75-.64l-13.59-17.35q.11 1.19.11 2.2v15.98h-4.27V308.8h2.54q.31 0 .53.03.23.03.4.11t.33.23q.16.15.36.41L135.99 327q-.06-.63-.09-1.24-.04-.61-.04-1.14V308.8Zm17.53 7.27q2.05 0 3.74.67 1.68.67 2.88 1.89 1.19 1.22 1.84 2.99.65 1.76.65 3.94 0 2.2-.65 3.96-.65 1.76-1.84 3.01-1.2 1.24-2.88 1.9-1.69.67-3.74.67-2.07 0-3.76-.67-1.69-.66-2.89-1.9-1.2-1.25-1.85-3.01-.66-1.76-.66-3.96 0-2.18.66-3.94.65-1.77 1.85-2.99 1.2-1.22 2.89-1.89 1.69-.67 3.76-.67Zm0 15.61q2.31 0 3.41-1.55 1.11-1.55 1.11-4.53 0-2.99-1.11-4.56-1.1-1.56-3.41-1.56-2.34 0-3.46 1.57-1.13 1.58-1.13 4.55 0 2.97 1.13 4.52 1.12 1.56 3.46 1.56Zm27.42 3.44q-2.42 0-3.7-1.36-1.29-1.36-1.29-3.75v-10.32h-1.89q-.36 0-.61-.23-.25-.24-.25-.7v-1.77l2.97-.48.93-5.04q.09-.36.34-.56.26-.2.65-.2h2.31v5.81h4.93v3.17h-4.93v10.01q0 .86.42 1.35.42.49 1.16.49.41 0 .69-.1.28-.1.49-.21.21-.11.37-.21.16-.1.32-.1.2 0 .33.1.12.1.27.3l1.33 2.16q-.97.81-2.23 1.22-1.26.42-2.61.42Zm11.68-27.04v10.26q1.08-1.01 2.37-1.64 1.3-.63 3.05-.63 1.51 0 2.68.52 1.17.51 1.95 1.44.78.92 1.19 2.21.4 1.29.4 2.84v11.75h-4.44v-11.75q0-1.7-.78-2.62-.77-.93-2.35-.93-1.16 0-2.16.52-1.01.52-1.91 1.42v13.36h-4.45v-26.75h4.45Zm27.32 8.28h4.45v18.47h-2.72q-.88 0-1.12-.81l-.3-1.48q-1.14 1.16-2.5 1.87-1.37.71-3.23.71-1.51 0-2.67-.51-1.16-.52-1.95-1.45-.79-.94-1.2-2.23-.4-1.28-.4-2.83v-11.74h4.44v11.74q0 1.69.78 2.62.79.92 2.35.92 1.16 0 2.16-.51 1.01-.51 1.91-1.41v-13.36Zm13.29 18.47h-4.45v-18.47h2.72q.86 0 1.13.81l.29 1.37q.49-.54 1.02-.99.53-.45 1.13-.77.6-.33 1.3-.52.69-.19 1.52-.19 1.74 0 2.87.95 1.12.94 1.68 2.51.43-.92 1.08-1.58.65-.65 1.42-1.07.78-.41 1.65-.61.87-.2 1.76-.2 1.53 0 2.71.47 1.19.47 2 1.37.81.9 1.23 2.2.43 1.29.43 2.97v11.75h-4.45v-11.75q0-1.77-.77-2.66-.78-.89-2.27-.89-.68 0-1.27.23-.58.24-1.03.68-.44.44-.69 1.11-.25.66-.25 1.53v11.75h-4.46v-11.75q0-1.86-.75-2.7-.75-.85-2.19-.85-.97 0-1.81.48-.83.47-1.55 1.3v13.52Zm30.15-13.07v8.28q.75.92 1.64 1.3.89.38 1.88.38 1.03 0 1.85-.37.82-.37 1.39-1.15.58-.79.89-2 .3-1.22.3-2.91 0-3.04-1.01-4.4-1-1.36-2.89-1.36-1.28 0-2.24.58-.95.59-1.81 1.65Zm0-13.68v10.55q1.11-1.17 2.47-1.86 1.36-.7 3.11-.7 1.6 0 2.88.63 1.29.63 2.2 1.81.91 1.18 1.4 2.86.48 1.67.48 3.76 0 2.25-.56 4.08-.55 1.84-1.59 3.15-1.03 1.3-2.49 2.02-1.46.72-3.24.72-.87 0-1.57-.17-.7-.17-1.29-.48-.6-.3-1.09-.74-.5-.45-.95-.99l-.2 1.25q-.1.46-.37.66-.26.2-.71.2h-2.93v-26.75h4.45Zm19.83 9.09.31 1.46q.56-.56 1.18-1.04.62-.47 1.31-.8.69-.34 1.49-.53.79-.19 1.72-.19 1.52 0 2.69.52 1.17.51 1.95 1.44.78.92 1.19 2.21.4 1.29.4 2.84v11.75h-4.44v-11.75q0-1.7-.78-2.62-.77-.93-2.36-.93-1.15 0-2.16.52-1 .52-1.9 1.42v13.36h-4.45v-18.47h2.72q.86 0 1.13.81Zm26.21 12.89v-3.11q-1.93.09-3.24.33-1.31.24-2.11.62-.79.38-1.13.88-.34.51-.34 1.1 0 1.17.69 1.67.69.51 1.81.51 1.37 0 2.37-.5 1-.49 1.95-1.5Zm-9.4-9.7-.79-1.42q3.19-2.92 7.67-2.92 1.62 0 2.9.53 1.28.53 2.16 1.48.88.94 1.34 2.26.46 1.31.46 2.88v11.66h-2.02q-.63 0-.97-.19-.34-.19-.54-.76l-.4-1.34q-.7.63-1.36 1.11-.67.48-1.39.8-.72.33-1.54.5-.82.17-1.81.17-1.17 0-2.16-.32-.99-.31-1.71-.94-.72-.63-1.11-1.57-.4-.93-.4-2.18 0-.7.23-1.39.24-.69.77-1.32.53-.63 1.38-1.19.84-.56 2.07-.97 1.24-.42 2.88-.68 1.63-.26 3.74-.31v-1.08q0-1.86-.79-2.75-.79-.89-2.29-.89-1.08 0-1.79.25t-1.25.57q-.54.31-.98.57-.44.25-.98.25-.47 0-.79-.24-.33-.25-.53-.57Zm18.06-4h4.46v18.47h-4.46v-18.47Zm5.07-5.38q0 .58-.23 1.08-.23.5-.62.88t-.91.6q-.52.23-1.12.23-.57 0-1.09-.23-.51-.22-.89-.6-.37-.38-.6-.88-.22-.5-.22-1.08 0-.59.22-1.12.23-.52.6-.9.38-.37.89-.6.52-.22 1.09-.22.6 0 1.12.22.52.23.91.6.39.38.62.9.23.53.23 1.12Zm3.98-2.9h4.45v26.75H327v-26.75Zm27.4 21.98v-3.11q-1.93.09-3.24.33-1.32.24-2.11.62-.79.38-1.13.88-.34.51-.34 1.1 0 1.17.69 1.67.69.51 1.81.51 1.37 0 2.36-.5 1-.49 1.96-1.5Zm-9.4-9.7-.79-1.42q3.19-2.92 7.67-2.92 1.62 0 2.9.53 1.27.53 2.16 1.48.88.94 1.34 2.26.46 1.31.46 2.88v11.66h-2.02q-.63 0-.97-.19-.34-.19-.54-.76l-.4-1.34q-.7.63-1.37 1.11-.66.48-1.38.8-.72.33-1.54.5-.82.17-1.81.17-1.17 0-2.16-.32-.99-.31-1.71-.94-.72-.63-1.12-1.57-.39-.93-.39-2.18 0-.7.23-1.39.24-.69.77-1.32.53-.63 1.37-1.19.85-.56 2.08-.97 1.24-.42 2.87-.68 1.64-.26 3.75-.31v-1.08q0-1.86-.79-2.75-.8-.89-2.29-.89-1.08 0-1.79.25t-1.25.57q-.54.31-.98.57-.44.25-.98.25-.47 0-.8-.24-.32-.25-.52-.57Zm31.05-4h3.51l-7.32 18.47h-4.04l-7.32-18.47h3.67q.5 0 .84.24.33.23.44.59l3.56 9.86q.29.87.51 1.7.21.82.37 1.65.18-.83.4-1.65.22-.83.52-1.7l3.64-9.86q.12-.36.45-.59.32-.24.77-.24Zm15.63 13.7v-3.11q-1.93.09-3.24.33-1.32.24-2.11.62-.79.38-1.13.88-.35.51-.35 1.1 0 1.17.7 1.67.69.51 1.81.51 1.36 0 2.36-.5 1-.49 1.96-1.5Zm-9.4-9.7-.79-1.42q3.18-2.92 7.67-2.92 1.62 0 2.89.53 1.28.53 2.16 1.48.89.94 1.34 2.26.46 1.31.46 2.88v11.66H394q-.63 0-.97-.19-.35-.19-.54-.76l-.4-1.34q-.7.63-1.37 1.11-.66.48-1.38.8-.72.33-1.54.5-.82.17-1.81.17-1.17 0-2.16-.32-.99-.31-1.71-.94-.72-.63-1.12-1.57-.39-.93-.39-2.18 0-.7.23-1.39t.76-1.32q.54-.63 1.38-1.19.85-.56 2.08-.97 1.23-.42 2.87-.68 1.64-.26 3.75-.31v-1.08q0-1.86-.8-2.75-.79-.89-2.28-.89-1.08 0-1.79.25t-1.25.57l-.99.57q-.44.25-.98.25-.46 0-.79-.24-.32-.25-.52-.57Zm18.05-4h4.47v18.47h-4.47v-18.47Zm5.08-5.38q0 .58-.23 1.08-.24.5-.62.88-.39.38-.91.6-.53.23-1.12.23-.58 0-1.09-.23-.51-.22-.89-.6t-.6-.88q-.23-.5-.23-1.08 0-.59.23-1.12.22-.52.6-.9.38-.37.89-.6.51-.22 1.09-.22.59 0 1.12.22.52.23.91.6.38.38.62.9.23.53.23 1.12Zm3.98-2.9h4.44v26.75h-4.44v-26.75Zm18.65 21.98v-3.11q-1.93.09-3.24.33-1.32.24-2.11.62-.79.38-1.13.88-.35.51-.35 1.1 0 1.17.7 1.67.69.51 1.81.51 1.36 0 2.36-.5 1-.49 1.96-1.5Zm-9.4-9.7-.79-1.42q3.18-2.92 7.67-2.92 1.62 0 2.89.53 1.28.53 2.16 1.48.89.94 1.34 2.26.46 1.31.46 2.88v11.66h-2.01q-.63 0-.97-.19-.35-.19-.54-.76l-.4-1.34q-.7.63-1.37 1.11-.66.48-1.38.8-.72.33-1.54.5-.82.17-1.81.17-1.17 0-2.16-.32-.99-.31-1.71-.94-.72-.63-1.12-1.57-.39-.93-.39-2.18 0-.7.23-1.39t.76-1.32q.54-.63 1.38-1.19.85-.56 2.08-.97 1.23-.42 2.87-.68 1.64-.26 3.75-.31v-1.08q0-1.86-.8-2.75-.79-.89-2.28-.89-1.08 0-1.79.25t-1.25.57l-.99.57q-.44.25-.98.25-.46 0-.79-.24-.32-.25-.52-.57Zm22.36 1.4v8.28q.75.92 1.64 1.3.89.38 1.88.38 1.03 0 1.85-.37.82-.37 1.39-1.15.58-.79.89-2 .3-1.22.3-2.91 0-3.04-1.01-4.4-1-1.36-2.89-1.36-1.28 0-2.24.58-.95.59-1.81 1.65Zm0-13.68v10.55q1.11-1.17 2.47-1.86 1.36-.7 3.11-.7 1.6 0 2.88.63 1.29.63 2.2 1.81.91 1.18 1.4 2.86.48 1.67.48 3.76 0 2.25-.56 4.08-.55 1.84-1.59 3.15-1.03 1.3-2.49 2.02-1.46.72-3.24.72-.87 0-1.57-.17-.7-.17-1.29-.48-.6-.3-1.09-.74-.5-.45-.95-.99l-.2 1.25q-.1.46-.36.66-.27.2-.72.2h-2.93v-26.75H441Zm16.03 0h4.45v26.75h-4.45v-26.75Zm12.41 15.39h8.38q0-.86-.24-1.63-.24-.76-.73-1.34-.48-.57-1.23-.91-.75-.33-1.74-.33-1.92 0-3.03 1.1-1.11 1.1-1.41 3.11Zm11.34 2.68h-11.43q.1 1.43.5 2.46.4 1.04 1.04 1.71.65.68 1.54 1.01.89.33 1.97.33t1.87-.25q.78-.25 1.37-.56.58-.3 1.02-.56.44-.25.86-.25.55 0 .82.42l1.28 1.62q-.74.86-1.65 1.45-.92.58-1.92.93-1 .35-2.03.5-1.04.14-2.01.14-1.93 0-3.58-.64-1.66-.64-2.88-1.89-1.23-1.25-1.93-3.1-.7-1.84-.7-4.27 0-1.89.61-3.55.61-1.67 1.76-2.9 1.14-1.24 2.79-1.96 1.64-.72 3.71-.72 1.75 0 3.22.56 1.48.56 2.54 1.63 1.06 1.07 1.67 2.63.6 1.56.6 3.55 0 1.01-.22 1.36-.21.35-.82.35Z"/></svg>